<svg xmlns="http://www.w3.org/2000/svg" viewBox="0 0 512 512"><title>Artboard 133</title><g id="Cutted_Tree" data-name="Cutted Tree"><path d="M64,106.66667V405.33333c0,47.12761,85.96094,85.33334,192,85.33334s192-38.20573,192-85.33334V106.66667Z" style="fill:#002c00"/><path d="M192,448c85.33333,0,128-69.52865,128-106.66667V106.66667H64V341.33333C64,378.47135,106.66667,448,192,448Z" style="fill:#103c10"/><path d="M75.72754,140.85775a10.66667,10.66667,0,0,0-7.2321,18.50976C104.60742,192.655,176.45508,213.33333,256,213.33333c76.65137,0,147.21484-19.54134,184.154-50.998a10.66685,10.66685,0,0,0-13.80762-16.2627c-24.02343,20.471-66.17871,36.071-116.999,42.5905l-.01107.0013c-.527.06771-1.05175.13379-1.58073.19954l-.00683.00065c-.13054.01628-.26367.03288-.39453.04883l-.00293.00033c-.666.082-1.32552.16146-1.99479.24023l-.00293.00033q-1.29933.15331-2.60645.2985l-.00293.00032c-.13216.015-.26855.02995-.40072.0446h-.00195c-.87174.096-1.73958.1888-2.61588.27962l-.01693.00163c-.33236.03451-.66667.06869-.99968.10221l-.01171.00131-.40007.04-.0013.00032c-.06087.00586-.13379.013-.19434.01921l-.01237.0013c-.13346.01335-.26269.026-.39616.03906l-.01171.0013-.39454.03842-.01823.00195-.192.01855h0c-.12761.01237-.27051.026-.39811.03841l-.01856.00163c-.13379.013-.264.02539-.39779.03809h-.0013c-.06706.00651-.13053.01237-.19726.01888l-.00912.00065c-.12793.012-.26823.02539-.39616.03711l-.01823.00195-.39876.03679-.001.00032-.20247.01856h-.00195c-.34147.03157-.67318.06152-1.01563.09212l-.01107.001c-.13444.012-.26432.02344-.39876.03549l-.014.001c-.13444.01205-.264.02344-.39843.03516l-.01335.001c-.06738.00586-.12012.01074-.1875.0166l-.01367.001c-.13477.01172-.2653.02312-.40007.03451l-.01139.001c-.196.01692-.40234.0345-.59863.05078l-.02051.00195c-.13477.01139-.25423.02116-.38932.03255l-.029.00228c-.06153.00521-.12631.01042-.1875.01563l-.00326.00032-.40169.03288-.016.0013c-.13509.01107-.26075.02149-.39616.03223l-.02344.00195c-.05534.00456-.11914.00944-.17448.014l-.02441.002-.19857.01595h-.002l-.1875.015-.03288.0026-.38607.03027-.02637.00228q-.09228.00684-.18457.01433l-.01009.00065-.20084.01562-.0101.00065-.18717.01465-.02083.00163-.39714.02995-.02051.00162c-.06152.00489-.11491.00879-.17675.01335l-.02539.00195c-.068.00521-.12793.00977-.196.01465l-.01139.001c-.05567.00423-.12565.00944-.18132.01334l-.0332.00261c-.12988.00944-.25553.01888-.38542.02832l-.03352.0026c-.05567.00391-.11556.00814-.17123.01237l-.02344.00163-.19889.01432-.00195.00033c-.06218.00456-.12435.00879-.1862.01335l-.03809.0026-.18034.013-.01106.00065-.19271.01367-.03646.00261-.1569.01107-.041.00292c-.06836.00489-.12239.00847-.19043.01335l-.01367.001-.17643.012-.043.00326-.18262.01237-.0039.00032c-.06836.00456-.12956.00879-.19792.01367l-.02474.00163c-.06217.00423-.11361.00781-.17578.01172l-.027.00195-.196.01335-.01009.00065-.17936.012-.04037.0026c-.056.00358-.11914.00781-.17513.01172l-.01758.001-.1914.01269-.04.0026-.14974.00977-.04916.00326c-.06217.0039-.12239.00781-.18489.012l-.029.00195-.15821.01009-.05859.00358-.14355.00944-.04362.00261-.17741.01139-.0625.00391-.13086.00814-.05925.0039-.18489.0114-.00651.00032-.181.01139-.0472.00293c-.04981.00293-.1045.00619-.15463.00944l-.041.00261c-.06218.00358-.12272.00749-.18522.01107l-.04232.0026-.14486.00879-.057.00358-.183.01074-.01953.0013-.17025.0101-.05338.00325-.15625.00912-.03027.00162c-.0625.00391-.12956.00782-.19206.0114l-.0319.002-.16179.00911-.04524.00261c-.125.00749-.25912.015-.38412.02213l-.0332.002-.17839.01009-.0192.001c-.0625.00359-.13119.00717-.19369.01075l-.03841.00228-.15072.00813-.0524.00293c-.12533.00716-.25456.014-.37989.02084l-.04329.00228c-.0625.00358-.112.00618-.17481.00944l-.01432.001-.19694.01042-.03255.00163c-.05632.00325-.1084.00586-.16471.00879l-.04069.00227c-.12533.00651-.25977.01368-.3851.02019l-.04134.00195-.15462.00814-.0459.00228-.19173.00976-.01693.001c-.05664.0026-.11328.00553-.16992.00846l-.05143.00261-.18132.00911-.00683.00033c-.06283.00293-.12858.00618-.19141.00944l-.04687.00227c-.05632.00261-.10026.00489-.1569.00782l-.03581.00162c-.06283.00293-.12923.00619-.19206.00944l-.0293.00131c-.05664.0026-.11263.00553-.16927.00813l-.03906.002-.17969.00846-.0153.00065-.19075.00912-.04395.002-.15592.00716-.043.00195-.194.00912-.01139.00033-.182.00846-.03809.00163c-.13248.00618-.26041.01171-.3929.01757l-.03385.00163-.16765.00749-.03287.0013c-.06967.00293-.124.00553-.19336.00846l-.0306.00131c-.05664.00228-.10742.00455-.16406.00716l-.04688.00195-.18522.00781-.00423.00033-.1989.00814-.0332.00162c-.05045.002-.11393.00456-.16471.00684l-.04069.00163c-.13282.00553-.25684.01041-.38965.016l-.03874.0013-.18164.00749-.014.00065-.196.00749-.03776.00162-.16113.00619-.041.00163c-.06315.0026-.1289.0052-.19206.00748l-.02181.001c-.057.00195-.11979.00456-.17675.00651l-.03972.00163c-.057.00228-.10807.0039-.165.00618l-.0345.0013-.18848.00684-.04427.00195c-.05078.00163-.10091.00358-.15169.00554l-.05306.00195-.18652.00651-.027.001-.16081.00586-.0599.002c-.057.00228-.10254.00358-.15983.00586l-.02929.001-.19467.00683-.0332.001-.17252.00586-.02865.001-.19889.00684-.01726.00033c-.05729.00195-.11881.00423-.1761.00586l-.04916.00162c-.05078.002-.1123.00391-.16308.00554l-.03125.001c-.06348.002-.127.00424-.19043.00619l-.04818.00163-.14225.00423-.0638.00228-.37435.01139-.057.00163-.152.00488-.04.001-.19108.00586-.03939.001-.15755.00489-.04817.0013-.39128.01106-.03776.001-.16178.00456-.042.0013c-.0638.00163-.1263.00326-.1901.00521l-.03841.001c-.05078.0013-.10449.0026-.1556.00423l-.056.0013-.18718.00488h-.0013c-.0638.002-.1276.00358-.1914.00521l-.05176.0013-.15365.00391-.04459.001c-.06381.00162-.12468.00325-.18848.00455l-.042.00131c-.05111.001-.10547.0026-.15658.00358l-.04785.0013-.17871.00423-.01758.00033c-.06413.00162-.12923.00325-.193.00455l-.04362.001-.16895.00391-.028.00065c-.0638.0013-.13444.00293-.19824.00455l-.02963.00065-.16406.00359-.05306.001-.181.00391-.01009.00032-.19108.00391-.055.001-.14812.00325-.0485.001c-.06413.0013-.1263.0026-.19043.00358l-.03613.001-.15918.00293-.05208.001-.17383.00326-.02084.00032c-.06412.0013-.12727.00261-.1914.00358l-.05274.001-.1455.0026-.05274.001c-.06413.0013-.12663.00228-.19075.00326l-.029.00065-.16537.0026-.056.001c-.05111.001-.10384.00195-.15527.0026l-.03939.00065-.18034.00293-.069.001-.13639.00228-.05567.00065-.18782.00293-.03711.00065c-.05762.00065-.09929.0013-.1569.00228l-.05632.00065c-.05794.001-.10482.00163-.16276.00228l-.03222.00065c-.058.00065-.13314.00163-.19109.0026l-.04882.00033c-.05144.001-.10254.00163-.15365.00228l-.04622.00032c-.06446.001-.12891.00163-.19336.00261l-.0306.00032-.16113.002-.05925.00065c-.06445.00065-.11621.0013-.18066.00228h-.00684l-.19694.00195-.05046.00065-.151.00163-.0511.00065-.19011.00195h-.03125c-.05143.00065-.112.0013-.16341.00163l-.057.00065-.15559.0013-.03972.00033c-.06445.00065-.12793.0013-.19238.00163l-.04655.00065-.14323.001-.06543.00065-.18717.00131-.01986.00032-.17415.001-.05567.00065-.16341.001-.0306.00032-.19271.001-.04785.00032-.15788.001-.04394.00033-.19629.001h-.01595c-.05794.00033-.11947.00065-.17741.00065l-.055.00033-.152.00065-.04818.00032c-.06445,0-.1237.00033-.18847.00066h-.04786c-.04524.00032-.10742.00032-.15267.00065h-.05078l-.39.001-.05371.00033h-.16048l-.03483.00032h-.24056c-.05144.00033-.10287.00033-.15463.00033H255.75c-.05827,0-.11035,0-.16829-.00033h-.03744c-.07129,0-.12663,0-.19759-.00032h-.04525c-.05176,0-.10937,0-.16113-.00033h-.0485c-.06478,0-.13282-.00032-.19727-.00032l-.03548-.00033c-.05176,0-.113,0-.16471-.00032h-.05762c-.06478-.00033-.1263-.00065-.19108-.00065l-.03613-.00033c-.05176,0-.10873-.00033-.16049-.00065l-.06543-.00033c-.05143,0-.11067-.00032-.16211-.00065H253.986l-.19173-.001-.05631-.00033-.16862-.001H253.54c-.06445-.00032-.13412-.00065-.19889-.0013l-.04883-.00032-.15755-.001-.05046-.00033c-.071-.00032-.12565-.00065-.19661-.0013h-.03125c-.05827-.00065-.11133-.001-.16928-.0013l-.05371-.00065c-.05794-.00033-.11751-.00065-.17545-.0013l-.041-.00033-.18131-.0013-.04883-.00065c-.05794-.00033-.11035-.001-.1683-.0013l-.03613-.00033-.19824-.002-.04069-.00033c-.05143-.00065-.112-.0013-.16374-.00163l-.04948-.00065-.19694-.002-.02864-.00033-.17741-.00195-.04-.00032-.2054-.00228h-.00228c-.06446-.001-.12826-.00163-.19239-.00228l-.055-.001c-.13509-.00163-.26107-.00293-.39583-.00488l-.04916-.00065c-.05794-.00065-.11-.0013-.168-.00228l-.03418-.00033-.19694-.00293-.04786-.00065c-.05143-.00065-.10579-.0013-.15722-.00228l-.04981-.00065-.192-.00293-.0459-.00065-.15365-.00228-.06282-.001c-.05144-.001-.10743-.00163-.15853-.00261l-.06087-.001-.16439-.00261-.06088-.001-.15657-.00293-.04362-.00065c-.06413-.001-.12695-.00228-.19108-.00326l-.05469-.001-.14551-.0026-.05892-.001-.1888-.00358-.0459-.001-.15462-.00293-.05794-.001-.19466-.00391H247.333c-.05762-.0013-.12435-.0026-.182-.00358l-.0651-.00162c-.05143-.001-.1084-.002-.15951-.00326l-.0345-.00065-.19271-.00391-.05274-.0013-.15983-.00325-.04069-.001-.195-.00423-.04167-.001-.1722-.00391-.03353-.00065-.2028-.00488-.02181-.00033c-.05762-.0013-.11556-.0026-.17318-.00423l-.05631-.0013-.1683-.00391-.04622-.0013c-.05729-.0013-.11556-.0026-.17318-.00423l-.05989-.0013-.1543-.00391-.04264-.001-.19173-.00489-.05046-.0013c-.05078-.00163-.09993-.0026-.15072-.00423l-.05729-.0013-.18782-.00489-.0446-.0013-.15267-.00423-.05957-.00163-.19206-.00521-.01334-.00032-.18132-.00521-.05794-.00163-.16829-.00488-.02637-.00065c-.0638-.002-.12891-.00391-.19271-.00553l-.05306-.00163c-.05111-.00163-.10612-.00326-.1569-.00456l-.04492-.0013-.1875-.00586-.058-.00163-.14453-.00456-.05534-.00162-.18782-.00586-.05013-.00163c-.04427-.0013-.09831-.00293-.1429-.00456l-.07227-.00228-.14909-.00488-.05924-.00163-.16569-.00553-.06608-.00228c-.05079-.00163-.09506-.00293-.14616-.00488l-.04851-.00163-.1914-.00618-.04655-.00163c-.05078-.002-.09961-.00358-.15039-.00521l-.057-.002-.1875-.00651-.04459-.00163c-.05079-.00163-.09864-.00326-.14909-.00521l-.06706-.00228c-.057-.00195-.112-.00423-.16927-.00618l-.05664-.002c-.05078-.00195-.09538-.00358-.14584-.0052L240.054,191.71l-.14909-.00553-.044-.00163c-.057-.00195-.1263-.00456-.18327-.00684l-.0638-.00228-.14713-.00553-.04623-.00195c-.06315-.00228-.12337-.00456-.18685-.00716l-.05729-.002-.14616-.00586-.054-.00195c-.06315-.0026-.12826-.00521-.19141-.00749l-.029-.0013-.16374-.00651-.05957-.00228-.16308-.00651-.042-.002-.1774-.00716-.05925-.00228c-.05046-.00228-.09928-.00423-.14974-.00619l-.0459-.00195-.18685-.00781-.05468-.00228-.14388-.00618-.06088-.00261-.18424-.00781-.04395-.00195c-.05045-.00228-.10188-.00456-.15234-.00652l-.057-.0026-.18294-.00781-.03776-.002c-.05046-.002-.11035-.00488-.16048-.00716l-.06185-.0026-.1696-.00749-.01953-.001-.1914-.00879-.056-.00261-.15039-.00683-.04851-.00228-.18457-.00847-.05827-.0026c-.04394-.00228-.0944-.00456-.13867-.00651l-.06087-.00293-.181-.00846-.05566-.00293c-.04395-.002-.0944-.00423-.13868-.00651l-.071-.00326c-.04394-.00228-.09049-.00456-.13444-.00651l-.08561-.00423-.14453-.00716-.07487-.00358c-.04395-.00228-.08171-.00423-.12565-.00619l-.06966-.00358c-.05632-.00293-.11491-.00586-.17155-.00846l-.07325-.00391c-.03776-.00163-.08561-.00423-.12337-.00618l-.06836-.00326-.17838-.00911-.05762-.00293-.13672-.00716-.06738-.00359-.17383-.00878-.04688-.00261-.14257-.00749-.08073-.00423-.13477-.00716-.05176-.0026c-.0625-.00358-.12011-.00651-.18294-.01009l-.06022-.00293c-.04362-.00261-.09245-.00521-.13639-.00749l-.06022-.00326c-.0625-.00358-.11426-.00618-.17676-.00976l-.06413-.00358c-.04362-.00228-.0918-.00488-.13542-.00749l-.06315-.00325-.179-.0101-.04916-.0026c-.05013-.00293-.09635-.00553-.14648-.00814l-.05892-.00358c-.05013-.0026-.097-.00521-.14714-.00814l-.07845-.00455-.14648-.00847-.0739-.00423c-.04394-.00228-.08365-.00456-.1276-.00716l-.06087-.00358-.17806-.01042-.06576-.0039c-.03743-.002-.08821-.00489-.12565-.00717l-.07259-.00423c-.0625-.0039-.11588-.00683-.17838-.01074l-.04753-.0026-.13542-.00814-.07812-.00488c-.04362-.00261-.09115-.00521-.13477-.00814l-.09538-.00554-.12727-.00781-.08269-.00488c-.04362-.00293-.07714-.00488-.12076-.00749l-.0625-.0039c-.056-.00359-.11426-.00717-.17058-.01042l-.0778-.00488-.12077-.00749-.07161-.00456-.168-.01042-.0778-.00488c-.03711-.0026-.07877-.00521-.11588-.00749l-.07227-.00455-.153-.00977-.0892-.00553c-.03711-.00261-.08138-.00554-.11881-.00781l-.08138-.00521c-.03744-.00228-.07585-.00489-.11328-.00749l-.11817-.00749-.11751-.00781-.08724-.00553c-.03743-.00261-.07552-.00521-.11263-.00749l-.07357-.00488-.17317-.0114-.06739-.00455-.11881-.00814-.0752-.00488c-.056-.00391-.11914-.00814-.17513-.01172l-.05045-.00358-.1403-.00944-.06869-.00456c-.04948-.00358-.10058-.00684-.15039-.01042l-.07585-.00521-.12955-.00878-.083-.00586-.11849-.00814-.06869-.00489-.167-.01171-.0804-.00554-.11491-.00814-.06966-.00488-.1709-.012-.07259-.00521-.11979-.00879-.07259-.00488c-.05567-.00423-.11817-.00879-.17383-.0127l-.055-.0039-.12728-.00944c-.0267-.00163-.05534-.00391-.082-.00586-.03711-.00261-.07292-.00521-.11-.00814-.04-.00261-.07292-.00521-.113-.00814l-.13281-.00977-.07422-.00553-.11946-.00879-.06674-.00488-.16992-.0127-.07389-.00553c-.03711-.00293-.08106-.00619-.11816-.00879l-.07455-.00586c-.05566-.00391-.11458-.00846-.17025-.01269l-.06087-.00456-.12858-.00977-.068-.00521-.13933-.01074-.09993-.00781c-.03711-.0026-.07975-.00619-.11686-.00879l-.085-.00684-.12077-.00911-.05892-.00456c-.05534-.00455-.11426-.00911-.1696-.01334l-.0778-.00619-.11556-.00911-.07422-.00586-.16927-.01335-.0664-.00521c-.043-.00358-.07617-.00618-.11914-.00944l-.07748-.00618-.13086-.01074c-.03548-.00261-.07129-.00554-.10644-.00847-.03711-.00293-.0778-.00618-.11459-.00944l-.082-.00651-.109-.00879-.11425-.00944-.123-.01009-.0804-.00651-.11719-.00976-.07031-.00554-.16862-.014-.0739-.00618-.1084-.00912-.08105-.00683-.16471-.01367-.07129-.00619c-.03711-.00293-.08041-.00651-.11719-.00976l-.07455-.00619-.14453-.01237-.07161-.00618-.138-.01172-.07682-.00651c-.03679-.00326-.08464-.00749-.12142-.01042l-.06348-.00553c-.055-.00489-.11556-.01009-.1709-.01465-.02181-.00195-.04915-.00456-.07129-.00619l-.11719-.01041-.07-.00619-.16992-.01465-.06576-.00586c-.043-.00358-.08138-.00716-.12435-.01106l-.06836-.00586-.16276-.01433-.0664-.00586c-.04265-.0039-.08431-.00781-.12728-.01139l-.07227-.00651-.13086-.01172-.07-.00618-.15657-.01433-.06771-.00618c-.04883-.00423-.08756-.00781-.13639-.01237l-.0472-.00423c-.0612-.00554-.12045-.01074-.18132-.0166l-.05241-.00456-.13476-.01237-.06511-.00619c-.055-.00488-.11816-.01074-.17285-.016l-.05306-.00488-.13216-.012-.06934-.00651-.14615-.01368-.06576-.00618-.14355-.01335-.07422-.00716-.11817-.01107-.06673-.00618-.16569-.01563-.07454-.00716-.11589-.01106-.071-.00684-.16309-.01563-.07975-.00748-.10872-.01074-.07325-.00684-.13932-.01367-.10156-.00977-.1058-.01042-.08821-.00846-.09538-.00944-.13249-.013-.1097-.01074-.08821-.00879-.09343-.00912c-.0306-.00325-.05827-.00585-.08887-.00878l-.15918-.016-.07877-.00782-.09961-.01009-.08984-.00879c-.04232-.00455-.08269-.00846-.125-.01269l-.11361-.0114-.09636-.00976-.08951-.00912c-.03614-.00358-.07487-.00748-.111-.01139l-.11165-.01139-.11426-.0114-.08463-.00879-.10808-.01106-.07389-.00782-.15885-.01627-.08334-.00846-.10644-.01107-.07292-.00782-.16178-.0166-.08008-.00846-.10775-.01139-.07454-.00782c-.04818-.00488-.09929-.01041-.14779-.01562l-.07943-.00814-.11849-.01269-.0817-.00847-.09929-.01074c-.04329-.00456-.08691-.00911-.1302-.014-.03614-.00358-.07552-.00781-.11166-.01172l-.07975-.00879c-.03613-.00358-.0752-.00781-.11133-.01171l-.068-.00749-.16732-.0179-.06641-.00717-.11849-.013-.07324-.00781-.16471-.0179-.0625-.00684-.11817-.013-.07519-.00814c-.04232-.00488-.08594-.00944-.12793-.01432l-.09538-.01042-.11849-.013-.085-.00944-.10937-.012-.06739-.00749-.16048-.01823c-.026-.0026-.05859-.00651-.08463-.00944-.03614-.00391-.06055-.00651-.09636-.01074l-.08659-.00977c-.04785-.00521-.10612-.01172-.15429-.01725l-.084-.00944-.09537-.01074-.08562-.00977-.12435-.01432-.09961-.01139-.11588-.013-.08106-.00944c-.0358-.00391-.0625-.00717-.09863-.0114l-.12956-.01465-.10579-.01237-.08659-.01009c-.02995-.00325-.06868-.00781-.09863-.01139l-.08171-.00944c-.04785-.00553-.10807-.01237-.15592-.01823l-.08464-.00977-.0931-.01074-.08561-.01009-.14485-.01693-.0918-.01106-.09636-.0114c-.02994-.00325-.06087-.00716-.09082-.01074-.02994-.00325-.071-.00814-.10091-.01172l-.12793-.0153-.09668-.01139-.097-.01172-.08464-.01009-.10579-.0127c-.04785-.00585-.08822-.01074-.13607-.01627l-.08952-.01074-.08724-.01075-.09114-.01074-.12142-.015c-.03841-.00456-.0791-.00944-.11784-.01432-.02962-.00359-.0612-.00717-.09082-.01107l-.08757-.01042c-.02962-.00391-.06543-.00814-.095-.01172l-.15169-.01855-.07747-.00944-.09864-.01237-.07226-.00879c-.06381-.00781-.13542-.0166-.19955-.02474l-.04394-.00553-.1097-.01335-.06381-.00814-.13737-.01693-.11035-.014-.10416-.013-.06934-.00879-.10319-.0127-.09668-.01237-.1429-.0179-.0765-.00977-.10124-.01269-.07617-.00977-.16081-.02051-.08105-.01041-.10124-.013-.07291-.00912-.1377-.0179-.10482-.01335-.0957-.01237-.08236-.01074-.09538-.01237-.06119-.00781c-.06348-.00814-.127-.0166-.19076-.02474l-.05989-.00782-.10612-.014-.05925-.00782c-.0638-.00813-.12956-.01692-.19336-.02506l-.06022-.00814c-.03385-.00423-.07259-.00944-.10644-.014l-.05827-.00748-.2028-.027-.04623-.00619c-.03385-.00423-.0778-.01009-.11165-.01464l-.05371-.00717c-.11849-.01562-.2474-.03287-.36589-.04882l-.05078-.00684-.11653-.01562-.0267-.00359-.21614-.02929-.0638-.00847-.10743-.01464-.05664-.00749c-.06347-.00879-.13509-.01856-.19856-.027l-.04818-.00684c-.03809-.00488-.07162-.00976-.1097-.015l-.06673-.00911c-.05079-.00684-.10352-.014-.1543-.02116l-.09212-.01237-.09571-.01335-.07845-.01074-.08952-.01237-.1123-.01563-.13086-.01823-.08073-.01106-.09375-.013-.08919-.01237-.14356-.02019-.08528-.012-.09375-.013-.0778-.01107c-.05469-.00749-.10352-.01432-.15821-.02213l-.08365-.01172-.09473-.01367-.07324-.0101c-.04623-.00683-.083-.012-.12923-.01855l-.11231-.016-.0957-.01367-.07683-.01074-.0996-.01433-.0726-.01041-.16276-.02344-.07682-.01107-.0931-.01335-.09245-.01334c-.05045-.00749-.0983-.01433-.14876-.02149l-.07389-.01074-.10547-.0153-.06673-.00976-.10873-.016c-.041-.00586-.09082-.013-.13151-.01921l-.09928-.01432-.07389-.01107-.09668-.014-.14551-.02148-.08724-.013c-.0293-.00424-.055-.00782-.084-.01237l-.08984-.013-.084-.0127c-.05013-.00716-.10873-.016-.15886-.02344l-.07389-.01106-.10059-.015-.05892-.00879-.196-.02929-.05143-.00782-.09571-.01432-.082-.01237-.09277-.014c-.04655-.00683-.09538-.01432-.14193-.02148l-.10221-.0153-.06055-.00912-.10514-.016-.07129-.01106-.16569-.02507-.07161-.01107-.10222-.01562L193.391,187.36c-.05436-.00814-.1097-.01661-.16374-.02507l-.07031-.01074-.10319-.016-.06933-.01074c-.05827-.00879-.109-.01661-.167-.02572l-.07129-.01107-.10481-.01627-.05925-.00912-.10384-.01627-.07227-.01107-.1608-.02539c-.029-.00423-.05078-.00782-.07976-.01237l-.0944-.01465-.07161-.01139-.17057-.0267-.06381-.01009-.10286-.01627-.05925-.00944-.2054-.03256-.03808-.00586c-.03321-.00553-.07422-.012-.10743-.01725l-.05859-.00944L191.08854,187l-.015-.00228c-.07422-.012-.153-.02441-.22754-.03646l-.05925-.00944c-.03711-.00618-.07259-.01172-.1097-.01758l-.03808-.00618c-.06218-.01009-.12858-.02083-.19043-.0306l-.07324-.012-.09538-.0153-.07683-.0127c-.0498-.00781-.10416-.0166-.15364-.02474l-.08073-.013-.096-.01562-.07129-.01172-.17936-.0293-.05273-.00879c-.03321-.00521-.068-.01107-.10124-.0166l-.07064-.01172-.09831-.016-.04915-.00814c-.06185-.01009-.13053-.02148-.19238-.0319l-.06088-.01009-.097-.016-.0778-.013c-.05339-.00879-.113-.01856-.16667-.02767l-.06217-.01042c-.03711-.00586-.06934-.01139-.10612-.01757l-.05046-.00847c-.06966-.01172-.139-.02311-.209-.03483l-.03516-.00586-.1084-.01823-.05533-.00944c-.06967-.01172-.1364-.02278-.20606-.03483l-.03939-.00651-.09733-.0166-.06445-.01074-.10319-.01758-.05925-.01009-.17513-.02962-.06673-.0114-.10026-.01725-.06673-.01139c-.05729-.00977-.10937-.01856-.16667-.02865l-.068-.01172-.09733-.0166-.07455-.01269-.12923-.02247c-.03385-.00586-.069-.01171-.10319-.0179-.03255-.00553-.05957-.01009-.09212-.016-.02279-.00391-.05241-.00879-.07519-.013l-.0931-.016-.07878-.01367c-.05306-.00944-.10319-.01791-.15625-.02735l-.071-.01237-.09506-.0166-.08235-.01432-.13574-.02376-.09017-.016-.0905-.016-.06836-.012-.17936-.03157-.057-.0101c-.03255-.00586-.06933-.01237-.10221-.0179l-.057-.01009-.10481-.01888c-.04558-.00781-.0918-.01628-.137-.02409l-.09049-.01628-.07585-.01367c-.03255-.00553-.0612-.01074-.09375-.0166l-.083-.015c-.04882-.00847-.099-.01758-.14778-.02637l-.07227-.013-.09245-.0166-.08366-.015-.1455-.02636-.07683-.01368-.09505-.01725-.07584-.014-.08594-.0153c-.04525-.00846-.09668-.01757-.14193-.026l-.08984-.01627-.0791-.01433-.08887-.01627-.082-.015c-.05241-.00976-.10059-.01855-.15332-.028l-.06836-.0127-.09278-.01692-.08007-.015-.14258-.026-.08561-.016c-.02832-.00521-.06055-.01107-.08887-.0166l-.06771-.01237-.17415-.03223-.0612-.01139-.08952-.01693-.0804-.01465-.08854-.0166-.1403-.02636-.08334-.01563-.08431-.01562c-.028-.00554-.05306-.0101-.08105-.0153-.03939-.00749-.08236-.01563-.12142-.02279l-.097-.01856-.0944-.01757-.08691-.0166-.08334-.01563-.1263-.02409-.095-.0179-.08854-.01693-.08073-.0153-.08431-.01627-.14225-.027-.08561-.01628-.07943-.0153-.08594-.0166-.09538-.01823-.13151-.02539-.0804-.0153-.08757-.01693-.07552-.01464-.154-.02995-.07291-.014-.08822-.01725-.07682-.015-.15235-.02962-.07584-.01465-.08724-.01725-.07748-.015-.08886-.01758c-.0446-.00879-.09441-.01856-.139-.027l-.08789-.01758-.07194-.014-.09571-.01888-.07714-.0153-.14388-.02832-.0765-.0153-.09212-.01822-.07292-.01433c-.05176-.01041-.099-.01985-.15072-.02995l-.07422-.015-.096-.01921-.06478-.013c-.04785-.00944-.0944-.01855-.14226-.02832l-.08626-.01725-.09147-.01823-.07617-.0153-.08952-.01823-.07422-.015-.15169-.0306-.07194-.01432-.09017-.01823-.07552-.01563-.15625-.03157-.06446-.013-.09928-.02019-.05664-.01171c-.05957-.012-.11458-.02312-.17383-.03549l-.05989-.012-.0931-.01921-.071-.01464-.09179-.01888c-.04427-.00879-.09213-.01888-.13607-.028l-.08952-.01823-.069-.01432-.09277-.01921-.08887-.01823c-.03971-.00813-.0804-.0166-.12012-.02506l-.09472-.01953-.07878-.01628-.09212-.0192-.11231-.02344-.09863-.02051-.08594-.0179-.08138-.01726-.08138-.01692-.141-.02963-.07812-.01627-.08757-.01856-.07519-.016-.12631-.02636c-.03157-.00684-.06477-.014-.09635-.02051l-.083-.01758-.08463-.0179-.08822-.01888c-.03939-.00814-.08463-.01791-.124-.02637-.02735-.00553-.06022-.0127-.08757-.01856l-.085-.0179-.07845-.01693-.12305-.02636-.10123-.02149-.08171-.01758-.07617-.01627-.08789-.01888-.13607-.0293-.082-.01758-.07943-.01725c-.02734-.00586-.06087-.013-.08821-.01921l-.07455-.016c-.0472-.01009-.10026-.02181-.14713-.0319l-.07064-.0153-.08822-.0192-.0791-.01725-.14974-.03256-.06478-.01432-.09733-.02116-.0612-.01335-.12532-.02734-.09961-.02213-.09245-.02019-.06966-.0153-.09017-.01985-.08268-.01823-.141-.03125-.06641-.01465-.09245-.02051-.0677-.015-.15463-.03418-.068-.0153-.097-.02149-.05013-.01139-.20442-.04557-.0267-.00586-.09668-.02181-.0638-.01432-.09472-.02116-.0752-.01693-.14746-.0332-.06218-.014-.09472-.02148-.06641-.015-.15267-.0345-.07064-.016-.09049-.02051-.07292-.0166-.12988-.02963-.08431-.0192-.09277-.02116-.06836-.01563-.08789-.02018-.13412-.0306-.08561-.01985-.07259-.01661-.084-.0192-.08723-.02018-.12989-.02995-.08073-.01856-.08105-.01888c-.02669-.00618-.05567-.01269-.08236-.0192l-.13118-.03028-.0791-.01855-.08594-.01986-.07259-.01692-.13151-.0306-.0905-.02116-.08008-.01856-.07975-.01888-.07747-.01823c-.04818-.01106-.09147-.02115-.13933-.03255l-.07714-.01823-.07943-.01855-.08594-.02018-.09407-.02214-.11133-.02637-.08334-.01985-.08626-.02051-.07292-.01725c-.04622-.01075-.09537-.02246-.14127-.03353l-.07552-.01791-.08854-.02115-.068-.01628-.08691-.02051-.13054-.03125-.08593-.02051-.07422-.0179-.085-.02051-.084-.02018-.126-.03027-.08366-.02019-.07194-.01725-.09506-.02311-.123-.02962-.0791-.01921-.08659-.02083-.06576-.016c-.0459-.0114-.09147-.02246-.137-.03353l-.08268-.02018-.08659-.02084-.06869-.01692-.08919-.02181-.13411-.03288-.07194-.01758-.08008-.01953-.08366-.02051-.08561-.02116c-.03809-.00944-.083-.02051-.1211-.02962-.02636-.00684-.05761-.01432-.084-.02083l-.08138-.02019-.07975-.01953-.11524-.02864-.0918-.02279-.08268-.02051-.08463-.02116-.06967-.01725-.14062-.03483-.06934-.01758-.08756-.02181-.07357-.01823-.10319-.026-.10937-.02734-.08073-.02018-.08041-.02019-.08593-.02181-.11-.02767-.09147-.02311-.08236-.02083-.07161-.0179c-.04883-.01237-.09147-.02312-.1403-.03581l-.07487-.01888-.08366-.02116-.07324-.01856-.07878-.02018-.13639-.03483-.06641-.01693-.09245-.02343-.07389-.01888c-.03125-.00814-.0625-.01628-.09408-.02409l-.11067-.02865-.08431-.02148-.07585-.01953-.09114-.02344c-.03386-.00879-.0625-.01628-.09636-.02474l-.10417-.027-.08072-.02083-.0765-.01986-.07455-.0192-.13509-.03516-.07715-.01986-.07845-.02051-.08007-.02083-.08724-.02279-.12305-.03222-.07389-.01921-.08008-.02083-.08073-.02116-.11784-.03092-.09082-.02409-.07845-.02051-.06966-.01823-.12337-.03255-.0892-.02376-.0791-.02084-.07812-.02051-.08041-.02148c-.04166-.01074-.08919-.02344-.13086-.03451l-.07194-.0192-.08268-.02181-.07161-.01921-.11068-.02962-.08626-.02279-.09538-.02571-.07357-.01953-.09342-.02507-.05827-.01562c-.04623-.01237-.09017-.02409-.13672-.03679l-.071-.01888-.09538-.02571-.05957-.016-.14551-.03939-.05046-.01367-.10286-.028-.06315-.01693-.126-.03418-.07129-.0192-.09863-.027-.06934-.01888-.08724-.02376-.10384-.02832-.09765-.0267-.06966-.01888-.08366-.02311-.1071-.02929-.099-.027-.07617-.02116-.07617-.02084-.07422-.0205-.12728-.03516-.07682-.02116c-.02572-.00683-.0586-.01595-.084-.02311l-.07194-.01986-.11686-.03255-.0664-.01823-.10385-.029-.071-.01986c-.0306-.00846-.06413-.01757-.09473-.02636l-.06315-.01758-.13118-.03646-.06966-.01953-.08822-.02474-.06348-.01758-.13932-.03939-.05566-.01562c-.03581-.00977-.069-.01921-.10482-.0293l-.05534-.01562-.12467-.03516-.07878-.02214-.08887-.02506-.067-.01921-.10189-.02864-.0765-.02181c-.04069-.0114-.07519-.02116-.11588-.03288l-.05958-.01693-.09863-.028-.057-.01628-.14063-.04-.05631-.01627c-.0306-.00847-.06934-.01953-.09961-.02832l-.05957-.01693-.14291-.041-.04329-.01237c-.03548-.01041-.07194-.02083-.10742-.03092l-.0612-.01758-.13054-.03743-.03711-.01074c-.04524-.01335-.08626-.02507-.13151-.03809l-.04915-.01432c-.04036-.0114-.07878-.02279-.11914-.03451l-.03646-.01042-.14258-.04134-.05729-.0166-.1097-.0319-.04329-.01269-.14714-.04265-.04394-.013-.11882-.0345-.03906-.0114c-.05013-.015-.10221-.03-.15234-.04492l-.029-.00846c-.04524-.013-.08268-.02409-.12793-.03744l-.04427-.013c-.04524-.01334-.09147-.02669-.13639-.04l-.01855-.00553c-.05013-.01465-.10189-.02995-.152-.04492l-.04232-.01237-.11816-.03483-.04135-.01237c-.05013-.01465-.10091-.02963-.151-.0446l-.03287-.00977c-.04-.01171-.08334-.02473-.12338-.03678l-.042-.01237c-.0498-.01465-.10091-.02995-.15072-.04492l-.026-.00749c-.04492-.01367-.08463-.02539-.12955-.03873l-.04265-.0127c-.10482-.03158-.20573-.06152-.31054-.0931l-.0306-.00911-.14812-.0446-.01074-.00326c-.055-.01627-.09863-.02962-.15364-.04622l-.04134-.01237c-.04493-.01335-.08008-.02409-.125-.03776l-.0306-.00911c-.04948-.015-.10254-.03093-.15235-.04623l-.03288-.00976-.12565-.03842-.03808-.01139c-.04981-.015-.10222-.03092-.152-.04622l-.02116-.00619c-.03971-.01237-.08984-.02767-.12956-.03971l-.04785-.01432c-.03971-.01237-.08366-.02572-.12337-.03776l-.03027-.00944c-.04981-.015-.09473-.029-.14421-.04395l-.05111-.01562-.10579-.03256-.04753-.01465c-.04948-.015-.09407-.029-.14355-.04394l-.04069-.0127-.11849-.03645-.04134-.0127c-.04916-.0153-.09733-.02995-.14681-.04525l-.03223-.01009c-.03939-.01237-.082-.02539-.12142-.03743l-.04394-.01367-.30078-.09343-.04362-.01367-.13086-.04069-.01986-.00619-.14909-.04655-.04232-.01334-.12337-.03874-.0293-.00911c-.04915-.0153-.10514-.03288-.15429-.04851l-.02116-.00651c-.04427-.014-.09082-.02864-.13509-.04231l-.03223-.01042c-.04915-.0153-.10449-.03288-.15332-.04818l-.01172-.0039-.14616-.0459-.02864-.00912q-.1543-.04882-.3086-.098l-.03483-.01107-.126-.04-.03158-.01009-.14844-.0472-.03255-.01041-.12728-.04069-.02962-.00944-.154-.04948-.0166-.00521-.13412-.043-.04-.013c-.09733-.03125-.2041-.06576-.30143-.097l-.03385-.01106-.13868-.0446-.01464-.00488-.154-.04981-.028-.00911-.13281-.0433-.02409-.00781c-.04883-.01562-.10482-.03385-.15332-.0498l-.02149-.00717-.13671-.04427-.0267-.00879-.15429-.05045-.00782-.00261-.14713-.04817-.02572-.00847c-.04817-.01595-.10449-.03418-.15267-.05013l-.00228-.00065-.154-.05078-.03027-.01009c-.04329-.014-.08626-.02832-.12956-.04264l-.02571-.00847-.151-.0498-.02474-.00814-.13444-.0446-.02441-.00813-.30924-.10287-.02507-.00846c-.10579-.03516-.20508-.06836-.31087-.10384l-.02051-.00684c-.10579-.03515-.20768-.06933-.31315-.10482l-.01693-.00586c-.05273-.01757-.099-.0332-.15169-.0511l-.00456-.0013c-.05273-.01791-.11035-.03744-.16276-.055l-.0026-.001c-.04785-.016-.10417-.03516-.152-.05144l-.01888-.00618c-.10026-.03418-.20866-.071-.30892-.10482l-.02572-.00879c-.10026-.03418-.20833-.071-.30826-.10514l-.01856-.00619-.14062-.04817-.01856-.00619-.15527-.05338-.00944-.00326-.14714-.05045-.01627-.00554c-.1045-.03613-.20736-.07129-.31185-.10742l-.01888-.00651c-.1045-.03613-.20476-.07064-.30892-.10677l-.01953-.00684c-.10417-.03613-.20671-.07194-.31088-.10807l-.014-.00488c-.16048-.056-.31543-.11035-.47591-.16634l-.00652-.00228-.31673-.11133-.01074-.00391-.3138-.11067-.01367-.00489-.14388-.0511-.01335-.00456c-.05176-.01856-.10482-.03744-.15658-.05567l-.00488-.00162c-.05143-.01823-.10091-.03581-.15234-.05436l-.00977-.00359c-.10319-.03645-.21321-.07584-.31608-.11263l-.00553-.00195c-.10319-.03678-.21485-.07715-.31771-.11393l-.00521-.002c-.10286-.03679-.21484-.07715-.31738-.11426l-.00423-.0013c-21.874-7.89454-39.76726-17.88444-52.12468-29.28256a10.62831,10.62831,0,0,0-7.20833-2.807Z" style="fill:#1d5125"/><path d="M436.78548,140.38184a10.629,10.629,0,0,0-7.28255,2.87532,98.26818,98.26818,0,0,1-7.81283,6.55176l-.00325.0026q-.58252.44092-1.17708.87891l-.00944.00684-.06739.0498-.00618.00456-.06706.04883-.01042.00781-.0664.04883-.00749.00553-.06445.04688-.01595.01171-.06088.0446-.01237.00911-.06282.0459-.0153.01107-.06152.04492-.01237.00879c-.02116.01563-.043.03158-.06446.04688l-.01041.00781-.06706.0485-.00456.00326-.07161.05208-.00358.00228c-.19694.1429-.39356.28418-.59245.42611l-.01595.01139-.06055.04362-.01627.01139-.05567.03972-.02409.01692-.054.03874-.02377.01693-.05143.03646-.028.01985-.05013.03548-.02832.02019-.04753.03352-.03223.02279-.0472.03353-.03125.02181-.04687.0332-.03125.02214-.04883.03418-.0293.02083-.04817.03353-.03125.02214-.05013.03515-.02507.01758-.05273.03678-.02832.01986-.05079.03548-.03255.02279-.04427.03092-.03613.02539-.0459.0319-.02506.01758-.05306.03679-.03744.026-.0485.03385-.07357.05078-.02214.0153-.055.03809-.04687.03255-.03418.02376-.04134.02832-.03874.027-.03776.02572-.04492.03125-.03614.02474-.04134.02864-.04166.02865-.041.028-.03711.02539-.04329.02962-.03646.02506-.04655.0319-.03516.02409-.04232.02865-.04036.02767-.044.02995-.03417.02311-.04818.0332-.0319.02149-.054.03678-.026.01758-.054.03646-.02864.01985-.05632.03809-.02409.01627-.06119.04135-.02019.01334-.06608.04492-.016.01075-.05957.04-.02474.0166-.0778.05241-.00228.00162c-.08626.05795-.16438.11-.251.168l-.00358.00261-.16309.10872-.01042.00684-.07194.04785-.01627.01107-.06478.043-.02376.01563-.0612.04069-.01791.01172-.06738.04492-.0153.01009-.07.04622-.01172.00782-.07032.04622-.0166.01107-.071.04687-.00912.00586c-.02376.01563-.0511.03386-.07487.04916l-.01106.00748-.07357.04818-.01042.00684-.06771.04459-.0205.01335-.07227.0472-.00781.00521c-.02735.01758-.05274.0345-.07975.05208l-.00489.00293c-.2845.18587-.568.36947-.85579.554l-.00456.00325-.083.05306-.00065.00033-.08138.05208-.01237.00781-.07357.0472-.01237.00782-.07226.04622-.01432.00912-.07618.0485-.00683.00423-.07845.05013-.00879.00553-.083.05274-.00065.00032c-21.95215,13.92579-53.01725,24.80209-89.3571,30.91928h-.00065c-.71419.12011-1.443.24088-2.16146.35742l-.014.00228-.12305.01985-.03288.00521-.111.0179-.0293.00489-.11133.0179-.04.00651-.098.01563-.04557.00748-.09473.015-.0524.00846-.09766.01563-.03711.00586-.10156.01627-.04883.00781-.0905.01433-.05143.00813-.0765.01237c-.02441.00359-.0498.00782-.07389.01172l-.06673.01042-.069.01107-.07813.01237-.068.01074-.09961.01562-.03711.00586-.09538.015-.08138.01269-.249.03907-.08789.01367-.05371.00846c-.03939.00586-.07878.012-.11817.01823l-.01692.0026-.10156.016-.04623.00717-.09766.015-.03906.00619-.0957.01464-.05143.00782-.0918.01432-.0446.00683-.09537.01465-.04981.00782c-.0306.00455-.06738.01009-.098.015l-.03548.00521-.1058.01627-.03743.00586-.10873.01628-.02343.00358c-.03939.00619-.07813.012-.11784.0179l-.02344.00358c-.03939.00619-.08236.0127-.12174.01856l-.00814.0013-.12956.01953-.01758.00261-.12207.01855-.01758.00261-.12239.01855-.01758.0026c-.57031.08562-1.14388.17058-1.71647.25391a10.66675,10.66675,0,1,0,3.07519,21.11068c54.71224-7.97,99.15756-25.74252,125.14779-50.043a10.66666,10.66666,0,0,0-7.28711-18.45833Z" style="fill:#103c10"/><ellipse cx="256" cy="106.66667" rx="192" ry="85.33333" style="fill:#ffaf7d"/><path d="M256,170.66667c-149.33333,0-85.33333-64-149.33333-64-42.66667,0-21.33334-64,149.33333-64,104.17708,0,170.66667,37.90625,170.66667,64,0,13.66265-10.6371,32.17435-42.66667,42.66666C354.85759,158.87986,307.8225,170.66667,256,170.66667Z" style="fill:#ff9c5e"/><ellipse cx="288" cy="106.66667" rx="117.33333" ry="42.66667" style="fill:#ff8d45"/><path d="M160,469.33333a10.66053,10.66053,0,0,1-10.66667-10.66666V405.33333c0-19.84375-4.97916-37.27083-10.26041-55.73958C133.63542,330.54167,128,310.82292,128,288c0-27.11458,7.875-46.11458,14.19792-61.38542,3.98958-9.625,7.13541-17.22916,7.13541-23.94791a10.66667,10.66667,0,0,1,21.33334,0c0,10.95833-4.26042,21.22916-8.76042,32.10416C156.01042,249,149.33333,265.125,149.33333,288c0,19.84375,4.97917,37.27083,10.26042,55.73958,5.4375,19.05209,11.07292,38.77084,11.07292,61.59375v53.33334A10.66053,10.66053,0,0,1,160,469.33333Z" style="fill:#215f2a"/><path d="M309.33333,469.33333a10.66053,10.66053,0,0,1-10.66666-10.66666v-64c0-48.15625-6.79167-67.35417-12.77084-84.29167-4.40625-12.44792-8.5625-24.20833-8.5625-43.70833,0-28.38542,8.86459-40.92709,15.34375-50.08334,4.15625-5.875,5.98959-8.6875,5.98959-13.91666a10.66667,10.66667,0,1,1,21.33333,0c0,12.22916-5.26042,19.66666-9.90625,26.23958-5.61458,7.9375-11.42708,16.15625-11.42708,37.76042,0,15.84375,3.23958,25,7.33333,36.60416,6.23958,17.63542,14,39.58334,14,91.39584v64A10.66053,10.66053,0,0,1,309.33333,469.33333Z" style="fill:#215f2a"/><path d="M309.33333,469.33333a10.66053,10.66053,0,0,1-10.66666-10.66666v-64a10.66667,10.66667,0,1,1,21.33333,0v64A10.66053,10.66053,0,0,1,309.33333,469.33333Z" style="fill:#1d5125"/><path d="M245.33333,469.33333a10.66486,10.66486,0,0,1-1.38541-21.23958C245.33333,447.27083,256,439.39583,256,394.66667c0-15.84375-3.23958-25-7.33333-36.60417-6.23959-17.63542-14-39.58333-14-91.39583,0-23.03125-2.98959-32-10.66667-32-6.875,0-10.66667,11.36458-10.66667,32V352A10.66667,10.66667,0,1,1,192,352V266.66667c0-44.08334,17.40625-53.33334,32-53.33334,32,0,32,38.75,32,53.33334,0,48.15625,6.79167,67.35416,12.77083,84.29166,4.40625,12.44792,8.5625,24.20834,8.5625,43.70834C277.33333,463.94792,252.84375,469.33333,245.33333,469.33333ZM245.25,448h0Zm.05208,0h0Zm.03125,0h0Z" style="fill:#215f2a"/><path d="M245.33333,469.33333a10.66968,10.66968,0,0,1-1.375-21.25c.98959-.57291,6.69792-4.67708,9.90625-23.58333a10.79539,10.79539,0,0,1,12.30209-8.73958,10.67994,10.67994,0,0,1,8.73958,12.30208C268.22917,467.34375,249.10417,469.33333,245.33333,469.33333ZM245.26042,448h0Zm.04166,0h0Zm.03125,0h0Z" style="fill:#184218"/><path d="M394.66667,448c-25.6875,0-53.33334-23.36458-53.33334-74.66667,0-47.26041-6.41666-58.98958-12.07291-69.34375C324.70833,295.66667,320,287.0625,320,266.66667,320,197.38542,344.48958,192,352,192a10.66676,10.66676,0,0,1,.0625,21.33333c.89583.11459-10.72917,6.64584-10.72917,53.33334,0,14.94791,2.64584,19.78125,6.63542,27.08333,6.55208,11.96875,14.69792,26.875,14.69792,79.58333,0,35.01042,16.09375,53.33334,32,53.33334,26.44791,0,32-75.40625,32-138.66667A10.66667,10.66667,0,1,1,448,288C448,400.14583,432.05208,448,394.66667,448Z" style="fill:#1d5125"/><path d="M95.95833,447.98958a10.56993,10.56993,0,0,1-7.5-3.11458c-1-1-24.45833-24.98958-24.45833-71.54167,0-22.64583,5.58333-44.98958,10.98958-66.58333,5.3125-21.29167,10.34375-41.39583,10.34375-61.41667v-64a10.66667,10.66667,0,0,1,21.33334,0v64c0,22.64584-5.58334,44.98959-10.98959,66.58334-5.3125,21.29166-10.34375,41.39583-10.34375,61.41666,0,37.23959,17.52084,55.75,18.27084,56.52084a10.68283,10.68283,0,0,1-7.64584,18.13541Z" style="fill:#215f2a"/><path d="M95.95833,447.98958a10.56993,10.56993,0,0,1-7.5-3.11458c-1-1-24.45833-24.98958-24.45833-71.54167a10.66667,10.66667,0,0,1,21.33333,0c0,37.23959,17.52084,55.75,18.27084,56.52084a10.68283,10.68283,0,0,1-7.64584,18.13541Z" style="fill:#1d5125"/><path d="M202.66667,448A10.66053,10.66053,0,0,1,192,437.33333V394.66667a10.66667,10.66667,0,1,1,21.33333,0v42.66666A10.66053,10.66053,0,0,1,202.66667,448Z" style="fill:#215f2a"/><path d="M394.42708,383.91667A10.22749,10.22749,0,0,1,387.125,380.875c-4.08333-4.08333-24.45833-29.8125-24.45833-135.54167,0-51.30208,27.64583-74.66666,53.33333-74.66666,32,0,32,48.57291,32,74.66666a10.66666,10.66666,0,1,1-21.33333,0C426.66667,198.92708,419.97917,192,416,192c-15.90625,0-32,18.32292-32,53.33333,0,97.69792,18.34375,120.57292,18.53125,120.79167a10.755,10.755,0,0,1-8.10417,17.79167Z" style="fill:#1d5125"/><ellipse cx="309.33333" cy="106.66667" rx="53.33333" ry="21.33333" style="fill:#ff7a27"/><circle cx="160" cy="458.66667" r="10.66667" style="fill:#184218"/></g></svg>